<mxfile host="app.diagrams.net" modified="2021-01-19T02:49:22.321Z" agent="5.0 (Macintosh; Intel Mac OS X 10_15_5) AppleWebKit/537.36 (KHTML, like Gecko) Chrome/87.0.4280.88 Safari/537.36 Edg/87.0.664.66" etag="o3FvmI2Z2dU2shDbFEG2" version="13.8.6" type="github">
  <diagram id="p-oaEFq9OEJQFTuC2MT-" name="Page-1">
    <mxGraphModel dx="2952" dy="1905" grid="1" gridSize="10" guides="1" tooltips="1" connect="1" arrows="1" fold="1" page="1" pageScale="1" pageWidth="827" pageHeight="1169" math="0" shadow="0">
      <root>
        <mxCell id="0" />
        <mxCell id="1" parent="0" />
        <mxCell id="rtNJkIgBVZsDBMfdx_lD-1" value="" style="rounded=0;whiteSpace=wrap;html=1;verticalAlign=middle;fillColor=#dae8fc;strokeColor=#6c8ebf;" vertex="1" parent="1">
          <mxGeometry x="873.33" y="-1150.5" width="450" height="500" as="geometry" />
        </mxCell>
        <mxCell id="rtNJkIgBVZsDBMfdx_lD-2" value="" style="rounded=0;whiteSpace=wrap;html=1;dashed=1;strokeWidth=1;fontFamily=Comic Sans MS;fontSize=19;fontColor=#000000;strokeColor=none;fillColor=#EA6B66;" vertex="1" parent="1">
          <mxGeometry x="1216.68" y="-878" width="70" height="25" as="geometry" />
        </mxCell>
        <mxCell id="rtNJkIgBVZsDBMfdx_lD-3" value="" style="rounded=0;whiteSpace=wrap;html=1;dashed=1;strokeWidth=1;fontFamily=Comic Sans MS;fontSize=19;fontColor=#000000;strokeColor=none;fillColor=#EA6B66;" vertex="1" parent="1">
          <mxGeometry x="1086.68" y="-878" width="120" height="25" as="geometry" />
        </mxCell>
        <mxCell id="rtNJkIgBVZsDBMfdx_lD-4" value="" style="rounded=0;whiteSpace=wrap;html=1;dashed=1;strokeWidth=1;fontFamily=Comic Sans MS;fontSize=19;fontColor=#000000;strokeColor=none;fillColor=#EA6B66;" vertex="1" parent="1">
          <mxGeometry x="1016.6800000000002" y="-878" width="60" height="25" as="geometry" />
        </mxCell>
        <mxCell id="rtNJkIgBVZsDBMfdx_lD-5" value="" style="rounded=0;whiteSpace=wrap;html=1;verticalAlign=middle;fillColor=#dae8fc;strokeColor=#6c8ebf;" vertex="1" parent="1">
          <mxGeometry x="-100" y="55" width="210" height="120" as="geometry" />
        </mxCell>
        <mxCell id="rtNJkIgBVZsDBMfdx_lD-6" value="" style="rounded=0;whiteSpace=wrap;html=1;verticalAlign=middle;fillColor=#dae8fc;strokeColor=#6c8ebf;" vertex="1" parent="1">
          <mxGeometry x="-1360" y="30" width="180.22" height="230" as="geometry" />
        </mxCell>
        <mxCell id="rtNJkIgBVZsDBMfdx_lD-7" value="" style="shape=image;verticalLabelPosition=bottom;labelBackgroundColor=#ffffff;verticalAlign=top;aspect=fixed;imageAspect=0;image=data:image/png,iVBORw0KGgoAAAANSUhEUgAAACgAAAAvCAYAAACR+4jVAAABbUlEQVRYCe2Y2w2DMAxFuxBzMAd7MAdzMAd7MAfV+bBkIWzIi6RVkKykeZ7cGFv0czT+fBrnOzpg6g39voL7vh/LsiTZuq7RQroKTtN0DMOQxeZ5joI0AVEuF5ysEwNpAnItsnDOMhTydUAOGwJZBTAEshrgU8iqgE8gqwPeQTYBCOS2bZdxshlAK9tkASQVsoFnjEEpy4oBhsQ0L3UWAxzH8dJ3rhqrAHJlQKIkppXA8aXdg2MNPU8fLosPar/C1+RhU93n1TugqNMVjPEfUY+yKQV5e89vZzOAOkBryGYANQh1uWYdLnS79FulniduRhkdB7WC+tNUL84YC+jcnh0Q/wPMesgiZwjvd3ZANrMgAdd+6YFJXxFAgeQq2QAL8TuBoywGqDdJqXfAFPX+84pDw8TrCpb4d8s7hBVTzUxCAI4NGR7IVZ/OSufA7wIymJNJfAM4t1kf7AJ6CygDa5UdMFX5rmBXMFWB1Plf2z91+slYg50AAAAASUVORK5CYII=;" vertex="1" parent="1">
          <mxGeometry x="-1310" y="80" width="59.57" height="70" as="geometry" />
        </mxCell>
        <mxCell id="rtNJkIgBVZsDBMfdx_lD-8" value="" style="shape=image;verticalLabelPosition=bottom;labelBackgroundColor=#ffffff;verticalAlign=top;aspect=fixed;imageAspect=0;image=data:image/png,iVBORw0KGgoAAAANSUhEUgAAADYAAAA3CAYAAABHGbl4AAAEY0lEQVRoBe2ajU0kMQyFaYgC2AZoAAqAAqAAKAAaoAG2ACgACoACqIAGaCCnbyWfwhvHcWYGwXFraTWZiWO/ZztO7ueg/FI5+KW8yp7Yv5bZfcb++4w9Pz+Xu7u7cn5+vvudnp6Ww8PD3Y+xfUcH3a+SVUrx8fGxXF5els1m85eEkek9WcNabKwpi4i9vLyUOiM9Er15bGFzDZlF7O3tbVdSPaBz5ylXfCyRYWJPT09hyR0fH5erq6uCHtGvATLmG3PooNsiT4kuyd4Qse122wQC0JpENtqsYW2L4MPDQ9bUJ700sevra9f52dlZeX9//2R0zgsEseURxPeopIjd39+7DudGMwKJTY/cqK8uMfaDOjo6OlpU/xEx5thb+FC/I3suJEZ56NmEwzl7qUdG5/Gh5MCS9R0So+0uiZqCHX0nQ+ofTBlpEvOMZuv84+Oj0EG5UUQtXUFn39kePWkS0xsFHasnEOIOqOWbBZzVA1tPXGJeZyL6kUBKg5EFOkevVz0usYuLi0lt45y27wmkvjpLSh6MkbjEIpDalVqZoqPd3NzsWjc6/Ni3fNNuB2iyjU5L8FuTA2MkE2LeuVUbpBnUANhT9Tzj3m2Em4p3y8BWJNqIonNtQoyI1kBPTk4+vTNnLReCmt1MkzHwSg5bddBMz556p4wCMSGmzsigkoUcRvWqRYmN3BvR1bKMmoJWUxTELjFLtxKGnJYGARgVDVrUFPRsHSKmYC0DlIhGty5ZxhaEEXIKNjqjtIFEupOMKdgapIJQ3Wh/1HbqMWvUTj2v46zuEDGceF3QnP1oYq1SrCPn7TfIrVGKdOGWaClGupOMKWgPLJnRAEDsRzcPJda6SWv0IMY5ZM2mFfX6O7p6Dn5Zu9f2y6HYEj3HIGeHd2tN/V3/vEfXjfbpogNaD0FKLhLvwgzgKHPMKSmCEt0kwKDl720TwzrZY0zoeUXZtYQIe9cuSuz29ra8vr7usoAeY75p+UEKG1G2tPTBGIlLTLMQlSPGAaTBAGz21ytBfGgZRjcU9F1i3h80o6wZOS9zPXK9TGFbs4XNqMk0iTGhIDNNgcyxT7LZy5ACi+5H1vXEzRiLvOtTL0rmDILoUi664S2DWVJe9URNwzA0iaGgZxqgMkbNOCXkNQr2S9QobL0XXDBlJCQGMC0rgPb2G44B1SKVAeYFBSwZ39gPiaGg5xpZA3CUOa98WNfrrka4FZTIp621Z5cYit4NA6DenmuR6h2+Bqi13vNla7xnihgL9RyBGD86lpXHElDY0O5nPrKZrgmmibGolTkAtP6ytBdpCLX+7Q27vfU1mXo8RIyF1Lk2FIusPgFs2WQtY65V/DcI5lpHAXbwMbKnalKMh4kZQO8oUGJz37FdB0RBZ95nETPDRFRvKHPJsA5bS7JkuHguImaG2AfcMrIlWpNnDWvn7iXDoM9ViNVGOfdo7ZQTvzqjjO07Omtlp/Zv49WJmeHvfu6JfXcGRv3vMzYase/W/wOshxltOdOeAwAAAABJRU5ErkJggg==;" vertex="1" parent="1">
          <mxGeometry x="-1400" y="-25" width="54" height="55" as="geometry" />
        </mxCell>
        <mxCell id="rtNJkIgBVZsDBMfdx_lD-9" value="" style="rounded=0;whiteSpace=wrap;html=1;verticalAlign=middle;fillColor=#dae8fc;strokeColor=#6c8ebf;" vertex="1" parent="1">
          <mxGeometry x="-1040" y="27.5" width="180.22" height="230" as="geometry" />
        </mxCell>
        <mxCell id="rtNJkIgBVZsDBMfdx_lD-10" value="" style="shape=image;verticalLabelPosition=bottom;labelBackgroundColor=#ffffff;verticalAlign=top;aspect=fixed;imageAspect=0;image=data:image/png,iVBORw0KGgoAAAANSUhEUgAAACgAAAAvCAYAAACR+4jVAAABbUlEQVRYCe2Y2w2DMAxFuxBzMAd7MAdzMAd7MAfV+bBkIWzIi6RVkKykeZ7cGFv0czT+fBrnOzpg6g39voL7vh/LsiTZuq7RQroKTtN0DMOQxeZ5joI0AVEuF5ysEwNpAnItsnDOMhTydUAOGwJZBTAEshrgU8iqgE8gqwPeQTYBCOS2bZdxshlAK9tkASQVsoFnjEEpy4oBhsQ0L3UWAxzH8dJ3rhqrAHJlQKIkppXA8aXdg2MNPU8fLosPar/C1+RhU93n1TugqNMVjPEfUY+yKQV5e89vZzOAOkBryGYANQh1uWYdLnS79FulniduRhkdB7WC+tNUL84YC+jcnh0Q/wPMesgiZwjvd3ZANrMgAdd+6YFJXxFAgeQq2QAL8TuBoywGqDdJqXfAFPX+84pDw8TrCpb4d8s7hBVTzUxCAI4NGR7IVZ/OSufA7wIymJNJfAM4t1kf7AJ6CygDa5UdMFX5rmBXMFWB1Plf2z91+slYg50AAAAASUVORK5CYII=;" vertex="1" parent="1">
          <mxGeometry x="-1010" y="50" width="44.68" height="52.5" as="geometry" />
        </mxCell>
        <mxCell id="rtNJkIgBVZsDBMfdx_lD-11" value="" style="shape=image;verticalLabelPosition=bottom;labelBackgroundColor=#ffffff;verticalAlign=top;aspect=fixed;imageAspect=0;image=data:image/png,iVBORw0KGgoAAAANSUhEUgAAADYAAAA3CAYAAABHGbl4AAAEY0lEQVRoBe2ajU0kMQyFaYgC2AZoAAqAAqAAKAAaoAG2ACgACoACqIAGaCCnbyWfwhvHcWYGwXFraTWZiWO/ZztO7ueg/FI5+KW8yp7Yv5bZfcb++4w9Pz+Xu7u7cn5+vvudnp6Ww8PD3Y+xfUcH3a+SVUrx8fGxXF5els1m85eEkek9WcNabKwpi4i9vLyUOiM9Er15bGFzDZlF7O3tbVdSPaBz5ylXfCyRYWJPT09hyR0fH5erq6uCHtGvATLmG3PooNsiT4kuyd4Qse122wQC0JpENtqsYW2L4MPDQ9bUJ700sevra9f52dlZeX9//2R0zgsEseURxPeopIjd39+7DudGMwKJTY/cqK8uMfaDOjo6OlpU/xEx5thb+FC/I3suJEZ56NmEwzl7qUdG5/Gh5MCS9R0So+0uiZqCHX0nQ+ofTBlpEvOMZuv84+Oj0EG5UUQtXUFn39kePWkS0xsFHasnEOIOqOWbBZzVA1tPXGJeZyL6kUBKg5EFOkevVz0usYuLi0lt45y27wmkvjpLSh6MkbjEIpDalVqZoqPd3NzsWjc6/Ni3fNNuB2iyjU5L8FuTA2MkE2LeuVUbpBnUANhT9Tzj3m2Em4p3y8BWJNqIonNtQoyI1kBPTk4+vTNnLReCmt1MkzHwSg5bddBMz556p4wCMSGmzsigkoUcRvWqRYmN3BvR1bKMmoJWUxTELjFLtxKGnJYGARgVDVrUFPRsHSKmYC0DlIhGty5ZxhaEEXIKNjqjtIFEupOMKdgapIJQ3Wh/1HbqMWvUTj2v46zuEDGceF3QnP1oYq1SrCPn7TfIrVGKdOGWaClGupOMKWgPLJnRAEDsRzcPJda6SWv0IMY5ZM2mFfX6O7p6Dn5Zu9f2y6HYEj3HIGeHd2tN/V3/vEfXjfbpogNaD0FKLhLvwgzgKHPMKSmCEt0kwKDl720TwzrZY0zoeUXZtYQIe9cuSuz29ra8vr7usoAeY75p+UEKG1G2tPTBGIlLTLMQlSPGAaTBAGz21ytBfGgZRjcU9F1i3h80o6wZOS9zPXK9TGFbs4XNqMk0iTGhIDNNgcyxT7LZy5ACi+5H1vXEzRiLvOtTL0rmDILoUi664S2DWVJe9URNwzA0iaGgZxqgMkbNOCXkNQr2S9QobL0XXDBlJCQGMC0rgPb2G44B1SKVAeYFBSwZ39gPiaGg5xpZA3CUOa98WNfrrka4FZTIp621Z5cYit4NA6DenmuR6h2+Bqi13vNla7xnihgL9RyBGD86lpXHElDY0O5nPrKZrgmmibGolTkAtP6ytBdpCLX+7Q27vfU1mXo8RIyF1Lk2FIusPgFs2WQtY65V/DcI5lpHAXbwMbKnalKMh4kZQO8oUGJz37FdB0RBZ95nETPDRFRvKHPJsA5bS7JkuHguImaG2AfcMrIlWpNnDWvn7iXDoM9ViNVGOfdo7ZQTvzqjjO07Omtlp/Zv49WJmeHvfu6JfXcGRv3vMzYase/W/wOshxltOdOeAwAAAABJRU5ErkJggg==;" vertex="1" parent="1">
          <mxGeometry x="-1080" y="-27.5" width="54" height="55" as="geometry" />
        </mxCell>
        <mxCell id="rtNJkIgBVZsDBMfdx_lD-12" value="" style="shape=image;verticalLabelPosition=bottom;labelBackgroundColor=#ffffff;verticalAlign=top;aspect=fixed;imageAspect=0;image=data:image/png,iVBORw0KGgoAAAANSUhEUgAAACgAAAAvCAYAAACR+4jVAAABbUlEQVRYCe2Y2w2DMAxFuxBzMAd7MAdzMAd7MAfV+bBkIWzIi6RVkKykeZ7cGFv0czT+fBrnOzpg6g39voL7vh/LsiTZuq7RQroKTtN0DMOQxeZ5joI0AVEuF5ysEwNpAnItsnDOMhTydUAOGwJZBTAEshrgU8iqgE8gqwPeQTYBCOS2bZdxshlAK9tkASQVsoFnjEEpy4oBhsQ0L3UWAxzH8dJ3rhqrAHJlQKIkppXA8aXdg2MNPU8fLosPar/C1+RhU93n1TugqNMVjPEfUY+yKQV5e89vZzOAOkBryGYANQh1uWYdLnS79FulniduRhkdB7WC+tNUL84YC+jcnh0Q/wPMesgiZwjvd3ZANrMgAdd+6YFJXxFAgeQq2QAL8TuBoywGqDdJqXfAFPX+84pDw8TrCpb4d8s7hBVTzUxCAI4NGR7IVZ/OSufA7wIymJNJfAM4t1kf7AJ6CygDa5UdMFX5rmBXMFWB1Plf2z91+slYg50AAAAASUVORK5CYII=;" vertex="1" parent="1">
          <mxGeometry x="-1010" y="116.25" width="44.68" height="52.5" as="geometry" />
        </mxCell>
        <mxCell id="rtNJkIgBVZsDBMfdx_lD-13" value="" style="shape=image;verticalLabelPosition=bottom;labelBackgroundColor=#ffffff;verticalAlign=top;aspect=fixed;imageAspect=0;image=data:image/png,iVBORw0KGgoAAAANSUhEUgAAACgAAAAvCAYAAACR+4jVAAABbUlEQVRYCe2Y2w2DMAxFuxBzMAd7MAdzMAd7MAfV+bBkIWzIi6RVkKykeZ7cGFv0czT+fBrnOzpg6g39voL7vh/LsiTZuq7RQroKTtN0DMOQxeZ5joI0AVEuF5ysEwNpAnItsnDOMhTydUAOGwJZBTAEshrgU8iqgE8gqwPeQTYBCOS2bZdxshlAK9tkASQVsoFnjEEpy4oBhsQ0L3UWAxzH8dJ3rhqrAHJlQKIkppXA8aXdg2MNPU8fLosPar/C1+RhU93n1TugqNMVjPEfUY+yKQV5e89vZzOAOkBryGYANQh1uWYdLnS79FulniduRhkdB7WC+tNUL84YC+jcnh0Q/wPMesgiZwjvd3ZANrMgAdd+6YFJXxFAgeQq2QAL8TuBoywGqDdJqXfAFPX+84pDw8TrCpb4d8s7hBVTzUxCAI4NGR7IVZ/OSufA7wIymJNJfAM4t1kf7AJ6CygDa5UdMFX5rmBXMFWB1Plf2z91+slYg50AAAAASUVORK5CYII=;" vertex="1" parent="1">
          <mxGeometry x="-1010" y="180" width="44.68" height="52.5" as="geometry" />
        </mxCell>
        <mxCell id="rtNJkIgBVZsDBMfdx_lD-14" value="&lt;span style=&quot;font-size: 16px&quot;&gt;浏览器支持单文件&lt;/span&gt;" style="text;html=1;strokeColor=none;fillColor=none;align=center;verticalAlign=middle;whiteSpace=wrap;rounded=0;" vertex="1" parent="1">
          <mxGeometry x="-1330" y="-100" width="130" height="20" as="geometry" />
        </mxCell>
        <mxCell id="rtNJkIgBVZsDBMfdx_lD-15" value="&lt;span style=&quot;font-size: 16px&quot;&gt;对于多文件语法&lt;/span&gt;" style="text;html=1;strokeColor=none;fillColor=none;align=center;verticalAlign=middle;whiteSpace=wrap;rounded=0;" vertex="1" parent="1">
          <mxGeometry x="-1010" y="-100" width="130" height="20" as="geometry" />
        </mxCell>
        <mxCell id="rtNJkIgBVZsDBMfdx_lD-16" value="" style="rounded=0;whiteSpace=wrap;html=1;verticalAlign=middle;fillColor=#dae8fc;strokeColor=#6c8ebf;" vertex="1" parent="1">
          <mxGeometry x="-770" y="25" width="180.22" height="230" as="geometry" />
        </mxCell>
        <mxCell id="rtNJkIgBVZsDBMfdx_lD-17" value="" style="shape=image;verticalLabelPosition=bottom;labelBackgroundColor=#ffffff;verticalAlign=top;aspect=fixed;imageAspect=0;image=data:image/png,iVBORw0KGgoAAAANSUhEUgAAACgAAAAvCAYAAACR+4jVAAABbUlEQVRYCe2Y2w2DMAxFuxBzMAd7MAdzMAd7MAfV+bBkIWzIi6RVkKykeZ7cGFv0czT+fBrnOzpg6g39voL7vh/LsiTZuq7RQroKTtN0DMOQxeZ5joI0AVEuF5ysEwNpAnItsnDOMhTydUAOGwJZBTAEshrgU8iqgE8gqwPeQTYBCOS2bZdxshlAK9tkASQVsoFnjEEpy4oBhsQ0L3UWAxzH8dJ3rhqrAHJlQKIkppXA8aXdg2MNPU8fLosPar/C1+RhU93n1TugqNMVjPEfUY+yKQV5e89vZzOAOkBryGYANQh1uWYdLnS79FulniduRhkdB7WC+tNUL84YC+jcnh0Q/wPMesgiZwjvd3ZANrMgAdd+6YFJXxFAgeQq2QAL8TuBoywGqDdJqXfAFPX+84pDw8TrCpb4d8s7hBVTzUxCAI4NGR7IVZ/OSufA7wIymJNJfAM4t1kf7AJ6CygDa5UdMFX5rmBXMFWB1Plf2z91+slYg50AAAAASUVORK5CYII=;" vertex="1" parent="1">
          <mxGeometry x="-740" y="47.5" width="44.68" height="52.5" as="geometry" />
        </mxCell>
        <mxCell id="rtNJkIgBVZsDBMfdx_lD-18" value="" style="shape=image;verticalLabelPosition=bottom;labelBackgroundColor=#ffffff;verticalAlign=top;aspect=fixed;imageAspect=0;image=data:image/png,iVBORw0KGgoAAAANSUhEUgAAADYAAAA3CAYAAABHGbl4AAAEY0lEQVRoBe2ajU0kMQyFaYgC2AZoAAqAAqAAKAAaoAG2ACgACoACqIAGaCCnbyWfwhvHcWYGwXFraTWZiWO/ZztO7ueg/FI5+KW8yp7Yv5bZfcb++4w9Pz+Xu7u7cn5+vvudnp6Ww8PD3Y+xfUcH3a+SVUrx8fGxXF5els1m85eEkek9WcNabKwpi4i9vLyUOiM9Er15bGFzDZlF7O3tbVdSPaBz5ylXfCyRYWJPT09hyR0fH5erq6uCHtGvATLmG3PooNsiT4kuyd4Qse122wQC0JpENtqsYW2L4MPDQ9bUJ700sevra9f52dlZeX9//2R0zgsEseURxPeopIjd39+7DudGMwKJTY/cqK8uMfaDOjo6OlpU/xEx5thb+FC/I3suJEZ56NmEwzl7qUdG5/Gh5MCS9R0So+0uiZqCHX0nQ+ofTBlpEvOMZuv84+Oj0EG5UUQtXUFn39kePWkS0xsFHasnEOIOqOWbBZzVA1tPXGJeZyL6kUBKg5EFOkevVz0usYuLi0lt45y27wmkvjpLSh6MkbjEIpDalVqZoqPd3NzsWjc6/Ni3fNNuB2iyjU5L8FuTA2MkE2LeuVUbpBnUANhT9Tzj3m2Em4p3y8BWJNqIonNtQoyI1kBPTk4+vTNnLReCmt1MkzHwSg5bddBMz556p4wCMSGmzsigkoUcRvWqRYmN3BvR1bKMmoJWUxTELjFLtxKGnJYGARgVDVrUFPRsHSKmYC0DlIhGty5ZxhaEEXIKNjqjtIFEupOMKdgapIJQ3Wh/1HbqMWvUTj2v46zuEDGceF3QnP1oYq1SrCPn7TfIrVGKdOGWaClGupOMKWgPLJnRAEDsRzcPJda6SWv0IMY5ZM2mFfX6O7p6Dn5Zu9f2y6HYEj3HIGeHd2tN/V3/vEfXjfbpogNaD0FKLhLvwgzgKHPMKSmCEt0kwKDl720TwzrZY0zoeUXZtYQIe9cuSuz29ra8vr7usoAeY75p+UEKG1G2tPTBGIlLTLMQlSPGAaTBAGz21ytBfGgZRjcU9F1i3h80o6wZOS9zPXK9TGFbs4XNqMk0iTGhIDNNgcyxT7LZy5ACi+5H1vXEzRiLvOtTL0rmDILoUi664S2DWVJe9URNwzA0iaGgZxqgMkbNOCXkNQr2S9QobL0XXDBlJCQGMC0rgPb2G44B1SKVAeYFBSwZ39gPiaGg5xpZA3CUOa98WNfrrka4FZTIp621Z5cYit4NA6DenmuR6h2+Bqi13vNla7xnihgL9RyBGD86lpXHElDY0O5nPrKZrgmmibGolTkAtP6ytBdpCLX+7Q27vfU1mXo8RIyF1Lk2FIusPgFs2WQtY65V/DcI5lpHAXbwMbKnalKMh4kZQO8oUGJz37FdB0RBZ95nETPDRFRvKHPJsA5bS7JkuHguImaG2AfcMrIlWpNnDWvn7iXDoM9ViNVGOfdo7ZQTvzqjjO07Omtlp/Zv49WJmeHvfu6JfXcGRv3vMzYase/W/wOshxltOdOeAwAAAABJRU5ErkJggg==;" vertex="1" parent="1">
          <mxGeometry x="-810" y="-30" width="54" height="55" as="geometry" />
        </mxCell>
        <mxCell id="rtNJkIgBVZsDBMfdx_lD-19" value="" style="shape=image;verticalLabelPosition=bottom;labelBackgroundColor=#ffffff;verticalAlign=top;aspect=fixed;imageAspect=0;image=data:image/png,iVBORw0KGgoAAAANSUhEUgAAACgAAAAvCAYAAACR+4jVAAABbUlEQVRYCe2Y2w2DMAxFuxBzMAd7MAdzMAd7MAfV+bBkIWzIi6RVkKykeZ7cGFv0czT+fBrnOzpg6g39voL7vh/LsiTZuq7RQroKTtN0DMOQxeZ5joI0AVEuF5ysEwNpAnItsnDOMhTydUAOGwJZBTAEshrgU8iqgE8gqwPeQTYBCOS2bZdxshlAK9tkASQVsoFnjEEpy4oBhsQ0L3UWAxzH8dJ3rhqrAHJlQKIkppXA8aXdg2MNPU8fLosPar/C1+RhU93n1TugqNMVjPEfUY+yKQV5e89vZzOAOkBryGYANQh1uWYdLnS79FulniduRhkdB7WC+tNUL84YC+jcnh0Q/wPMesgiZwjvd3ZANrMgAdd+6YFJXxFAgeQq2QAL8TuBoywGqDdJqXfAFPX+84pDw8TrCpb4d8s7hBVTzUxCAI4NGR7IVZ/OSufA7wIymJNJfAM4t1kf7AJ6CygDa5UdMFX5rmBXMFWB1Plf2z91+slYg50AAAAASUVORK5CYII=;" vertex="1" parent="1">
          <mxGeometry x="-740" y="113.75" width="44.68" height="52.5" as="geometry" />
        </mxCell>
        <mxCell id="rtNJkIgBVZsDBMfdx_lD-20" value="" style="shape=image;verticalLabelPosition=bottom;labelBackgroundColor=#ffffff;verticalAlign=top;aspect=fixed;imageAspect=0;image=data:image/png,iVBORw0KGgoAAAANSUhEUgAAACgAAAAvCAYAAACR+4jVAAABbUlEQVRYCe2Y2w2DMAxFuxBzMAd7MAdzMAd7MAfV+bBkIWzIi6RVkKykeZ7cGFv0czT+fBrnOzpg6g39voL7vh/LsiTZuq7RQroKTtN0DMOQxeZ5joI0AVEuF5ysEwNpAnItsnDOMhTydUAOGwJZBTAEshrgU8iqgE8gqwPeQTYBCOS2bZdxshlAK9tkASQVsoFnjEEpy4oBhsQ0L3UWAxzH8dJ3rhqrAHJlQKIkppXA8aXdg2MNPU8fLosPar/C1+RhU93n1TugqNMVjPEfUY+yKQV5e89vZzOAOkBryGYANQh1uWYdLnS79FulniduRhkdB7WC+tNUL84YC+jcnh0Q/wPMesgiZwjvd3ZANrMgAdd+6YFJXxFAgeQq2QAL8TuBoywGqDdJqXfAFPX+84pDw8TrCpb4d8s7hBVTzUxCAI4NGR7IVZ/OSufA7wIymJNJfAM4t1kf7AJ6CygDa5UdMFX5rmBXMFWB1Plf2z91+slYg50AAAAASUVORK5CYII=;" vertex="1" parent="1">
          <mxGeometry x="-740" y="177.5" width="44.68" height="52.5" as="geometry" />
        </mxCell>
        <mxCell id="rtNJkIgBVZsDBMfdx_lD-21" value="&lt;span style=&quot;font-size: 15px&quot;&gt;const b = require(&#39;b&#39;)&lt;/span&gt;" style="text;html=1;strokeColor=none;fillColor=none;align=center;verticalAlign=middle;whiteSpace=wrap;rounded=0;fontFamily=Comic Sans MS;fontSize=15;fontColor=#FF308A;" vertex="1" parent="1">
          <mxGeometry x="-695.32" y="50" width="190" height="20" as="geometry" />
        </mxCell>
        <mxCell id="rtNJkIgBVZsDBMfdx_lD-22" value="&lt;span style=&quot;font-size: 15px&quot;&gt;module.exports = &#39;it is b&#39;&lt;/span&gt;" style="text;html=1;strokeColor=none;fillColor=none;align=center;verticalAlign=middle;whiteSpace=wrap;rounded=0;fontFamily=Comic Sans MS;fontSize=15;fontColor=#FF308A;" vertex="1" parent="1">
          <mxGeometry x="-690" y="130" width="190" height="20" as="geometry" />
        </mxCell>
        <mxCell id="rtNJkIgBVZsDBMfdx_lD-23" value="&lt;span style=&quot;font-size: 15px&quot;&gt;module.exports = &#39;it is c&#39;&lt;/span&gt;" style="text;html=1;strokeColor=none;fillColor=none;align=center;verticalAlign=middle;whiteSpace=wrap;rounded=0;fontFamily=Comic Sans MS;fontSize=15;fontColor=#FF308A;" vertex="1" parent="1">
          <mxGeometry x="-690" y="196.25" width="190" height="20" as="geometry" />
        </mxCell>
        <mxCell id="rtNJkIgBVZsDBMfdx_lD-24" value="&lt;span style=&quot;font-size: 15px&quot;&gt;const c = require(&#39;c&#39;)&lt;/span&gt;" style="text;html=1;strokeColor=none;fillColor=none;align=center;verticalAlign=middle;whiteSpace=wrap;rounded=0;fontFamily=Comic Sans MS;fontSize=15;fontColor=#FF308A;" vertex="1" parent="1">
          <mxGeometry x="-695.32" y="70" width="190" height="20" as="geometry" />
        </mxCell>
        <mxCell id="rtNJkIgBVZsDBMfdx_lD-25" value="" style="shape=image;verticalLabelPosition=bottom;labelBackgroundColor=#ffffff;verticalAlign=top;aspect=fixed;imageAspect=0;image=data:image/png,iVBORw0KGgoAAAANSUhEUgAAACgAAAAvCAYAAACR+4jVAAABbUlEQVRYCe2Y2w2DMAxFuxBzMAd7MAdzMAd7MAfV+bBkIWzIi6RVkKykeZ7cGFv0czT+fBrnOzpg6g39voL7vh/LsiTZuq7RQroKTtN0DMOQxeZ5joI0AVEuF5ysEwNpAnItsnDOMhTydUAOGwJZBTAEshrgU8iqgE8gqwPeQTYBCOS2bZdxshlAK9tkASQVsoFnjEEpy4oBhsQ0L3UWAxzH8dJ3rhqrAHJlQKIkppXA8aXdg2MNPU8fLosPar/C1+RhU93n1TugqNMVjPEfUY+yKQV5e89vZzOAOkBryGYANQh1uWYdLnS79FulniduRhkdB7WC+tNUL84YC+jcnh0Q/wPMesgiZwjvd3ZANrMgAdd+6YFJXxFAgeQq2QAL8TuBoywGqDdJqXfAFPX+84pDw8TrCpb4d8s7hBVTzUxCAI4NGR7IVZ/OSufA7wIymJNJfAM4t1kf7AJ6CygDa5UdMFX5rmBXMFWB1Plf2z91+slYg50AAAAASUVORK5CYII=;" vertex="1" parent="1">
          <mxGeometry x="-470" y="33.75" width="44.68" height="52.5" as="geometry" />
        </mxCell>
        <mxCell id="rtNJkIgBVZsDBMfdx_lD-26" value="" style="shape=image;verticalLabelPosition=bottom;labelBackgroundColor=#ffffff;verticalAlign=top;aspect=fixed;imageAspect=0;image=data:image/png,iVBORw0KGgoAAAANSUhEUgAAACgAAAAvCAYAAACR+4jVAAABbUlEQVRYCe2Y2w2DMAxFuxBzMAd7MAdzMAd7MAfV+bBkIWzIi6RVkKykeZ7cGFv0czT+fBrnOzpg6g39voL7vh/LsiTZuq7RQroKTtN0DMOQxeZ5joI0AVEuF5ysEwNpAnItsnDOMhTydUAOGwJZBTAEshrgU8iqgE8gqwPeQTYBCOS2bZdxshlAK9tkASQVsoFnjEEpy4oBhsQ0L3UWAxzH8dJ3rhqrAHJlQKIkppXA8aXdg2MNPU8fLosPar/C1+RhU93n1TugqNMVjPEfUY+yKQV5e89vZzOAOkBryGYANQh1uWYdLnS79FulniduRhkdB7WC+tNUL84YC+jcnh0Q/wPMesgiZwjvd3ZANrMgAdd+6YFJXxFAgeQq2QAL8TuBoywGqDdJqXfAFPX+84pDw8TrCpb4d8s7hBVTzUxCAI4NGR7IVZ/OSufA7wIymJNJfAM4t1kf7AJ6CygDa5UdMFX5rmBXMFWB1Plf2z91+slYg50AAAAASUVORK5CYII=;" vertex="1" parent="1">
          <mxGeometry x="-470" y="100" width="44.68" height="52.5" as="geometry" />
        </mxCell>
        <mxCell id="rtNJkIgBVZsDBMfdx_lD-27" value="" style="shape=image;verticalLabelPosition=bottom;labelBackgroundColor=#ffffff;verticalAlign=top;aspect=fixed;imageAspect=0;image=data:image/png,iVBORw0KGgoAAAANSUhEUgAAACgAAAAvCAYAAACR+4jVAAABbUlEQVRYCe2Y2w2DMAxFuxBzMAd7MAdzMAd7MAfV+bBkIWzIi6RVkKykeZ7cGFv0czT+fBrnOzpg6g39voL7vh/LsiTZuq7RQroKTtN0DMOQxeZ5joI0AVEuF5ysEwNpAnItsnDOMhTydUAOGwJZBTAEshrgU8iqgE8gqwPeQTYBCOS2bZdxshlAK9tkASQVsoFnjEEpy4oBhsQ0L3UWAxzH8dJ3rhqrAHJlQKIkppXA8aXdg2MNPU8fLosPar/C1+RhU93n1TugqNMVjPEfUY+yKQV5e89vZzOAOkBryGYANQh1uWYdLnS79FulniduRhkdB7WC+tNUL84YC+jcnh0Q/wPMesgiZwjvd3ZANrMgAdd+6YFJXxFAgeQq2QAL8TuBoywGqDdJqXfAFPX+84pDw8TrCpb4d8s7hBVTzUxCAI4NGR7IVZ/OSufA7wIymJNJfAM4t1kf7AJ6CygDa5UdMFX5rmBXMFWB1Plf2z91+slYg50AAAAASUVORK5CYII=;" vertex="1" parent="1">
          <mxGeometry x="-470" y="163.75" width="44.68" height="52.5" as="geometry" />
        </mxCell>
        <mxCell id="rtNJkIgBVZsDBMfdx_lD-28" value="&lt;span style=&quot;font-size: 15px&quot;&gt;const b = require(&#39;b&#39;)&lt;/span&gt;" style="text;html=1;strokeColor=none;fillColor=none;align=center;verticalAlign=middle;whiteSpace=wrap;rounded=0;fontFamily=Comic Sans MS;fontSize=15;fontColor=#FF308A;" vertex="1" parent="1">
          <mxGeometry x="-425.32000000000005" y="36.25" width="190" height="20" as="geometry" />
        </mxCell>
        <mxCell id="rtNJkIgBVZsDBMfdx_lD-29" value="&lt;span style=&quot;font-size: 15px&quot;&gt;module.exports = &#39;it is b&#39;&lt;/span&gt;" style="text;html=1;strokeColor=none;fillColor=none;align=center;verticalAlign=middle;whiteSpace=wrap;rounded=0;fontFamily=Comic Sans MS;fontSize=15;fontColor=#FF308A;" vertex="1" parent="1">
          <mxGeometry x="-420" y="116.25" width="190" height="20" as="geometry" />
        </mxCell>
        <mxCell id="rtNJkIgBVZsDBMfdx_lD-30" value="&lt;span style=&quot;font-size: 15px&quot;&gt;module.exports = &#39;it is c&#39;&lt;/span&gt;" style="text;html=1;strokeColor=none;fillColor=none;align=center;verticalAlign=middle;whiteSpace=wrap;rounded=0;fontFamily=Comic Sans MS;fontSize=15;fontColor=#FF308A;" vertex="1" parent="1">
          <mxGeometry x="-420" y="182.5" width="190" height="20" as="geometry" />
        </mxCell>
        <mxCell id="rtNJkIgBVZsDBMfdx_lD-31" value="&lt;span style=&quot;font-size: 15px&quot;&gt;const c = require(&#39;c&#39;)&lt;/span&gt;" style="text;html=1;strokeColor=none;fillColor=none;align=center;verticalAlign=middle;whiteSpace=wrap;rounded=0;fontFamily=Comic Sans MS;fontSize=15;fontColor=#FF308A;" vertex="1" parent="1">
          <mxGeometry x="-425.32000000000005" y="56.25" width="190" height="20" as="geometry" />
        </mxCell>
        <mxCell id="rtNJkIgBVZsDBMfdx_lD-32" value="" style="endArrow=classic;html=1;fontFamily=Comic Sans MS;fontSize=15;fontColor=#FF308A;" edge="1" parent="1">
          <mxGeometry width="50" height="50" relative="1" as="geometry">
            <mxPoint x="-209.9999999999991" y="113.75" as="sourcePoint" />
            <mxPoint x="-129.9999999999991" y="114" as="targetPoint" />
          </mxGeometry>
        </mxCell>
        <mxCell id="rtNJkIgBVZsDBMfdx_lD-33" value="&lt;span style=&quot;font-size: 15px&quot;&gt;&lt;font color=&quot;#000000&quot;&gt;&amp;nbsp; &amp;nbsp; &amp;nbsp; &amp;nbsp; const b = require(&#39;b&#39;)&lt;/font&gt;&lt;/span&gt;" style="text;html=1;strokeColor=none;fillColor=none;align=center;verticalAlign=middle;whiteSpace=wrap;rounded=0;fontFamily=Comic Sans MS;fontSize=15;fontColor=#FF308A;" vertex="1" parent="1">
          <mxGeometry x="-100.00000000000006" y="91.25" width="190" height="20" as="geometry" />
        </mxCell>
        <mxCell id="rtNJkIgBVZsDBMfdx_lD-34" value="&lt;span style=&quot;font-size: 15px&quot;&gt;&amp;nbsp; &amp;nbsp; &amp;nbsp; &amp;nbsp; const c = require(&#39;c&#39;)&lt;/span&gt;" style="text;html=1;strokeColor=none;fillColor=none;align=center;verticalAlign=middle;whiteSpace=wrap;rounded=0;fontFamily=Comic Sans MS;fontSize=15;" vertex="1" parent="1">
          <mxGeometry x="-100.00000000000006" y="111.25" width="190" height="20" as="geometry" />
        </mxCell>
        <mxCell id="rtNJkIgBVZsDBMfdx_lD-35" value="" style="rounded=0;whiteSpace=wrap;html=1;fontFamily=Comic Sans MS;fontSize=15;dashed=1;perimeterSpacing=0;fillColor=none;strokeColor=#EA6B66;strokeWidth=2;" vertex="1" parent="1">
          <mxGeometry x="-80" y="66.25" width="170" height="25" as="geometry" />
        </mxCell>
        <mxCell id="rtNJkIgBVZsDBMfdx_lD-36" value="" style="endArrow=classic;html=1;fontFamily=Comic Sans MS;fontSize=15;fontColor=#FF308A;strokeColor=#EA6B66;" edge="1" parent="1">
          <mxGeometry width="50" height="50" relative="1" as="geometry">
            <mxPoint x="10.00000000000091" y="80" as="sourcePoint" />
            <mxPoint x="10.00000000000091" y="40" as="targetPoint" />
          </mxGeometry>
        </mxCell>
        <mxCell id="rtNJkIgBVZsDBMfdx_lD-37" value="&lt;span style=&quot;font-size: 18px&quot;&gt;function(module,exports,require){&lt;br&gt;&lt;/span&gt;" style="text;html=1;strokeColor=none;fillColor=none;align=center;verticalAlign=middle;whiteSpace=wrap;rounded=0;fontFamily=Comic Sans MS;fontSize=16;fontColor=#FF308A;" vertex="1" parent="1">
          <mxGeometry x="-90" width="370" height="30" as="geometry" />
        </mxCell>
        <mxCell id="rtNJkIgBVZsDBMfdx_lD-38" value="&lt;div&gt;&lt;span style=&quot;font-size: 18px&quot;&gt;}&lt;/span&gt;&lt;/div&gt;" style="text;html=1;strokeColor=none;fillColor=none;align=left;verticalAlign=middle;whiteSpace=wrap;rounded=0;fontFamily=Comic Sans MS;fontSize=16;fontColor=#FF308A;" vertex="1" parent="1">
          <mxGeometry x="-30" y="202.5" width="50" height="30" as="geometry" />
        </mxCell>
        <mxCell id="rtNJkIgBVZsDBMfdx_lD-39" value="" style="endArrow=classic;html=1;fontFamily=Comic Sans MS;fontSize=15;fontColor=#FF308A;" edge="1" parent="1">
          <mxGeometry width="50" height="50" relative="1" as="geometry">
            <mxPoint x="220" y="108.13000000000011" as="sourcePoint" />
            <mxPoint x="300" y="108.38000000000011" as="targetPoint" />
          </mxGeometry>
        </mxCell>
        <mxCell id="rtNJkIgBVZsDBMfdx_lD-40" value="" style="rounded=0;whiteSpace=wrap;html=1;verticalAlign=middle;fillColor=#dae8fc;strokeColor=#6c8ebf;" vertex="1" parent="1">
          <mxGeometry x="350" y="-67.5" width="290" height="102.5" as="geometry" />
        </mxCell>
        <mxCell id="rtNJkIgBVZsDBMfdx_lD-41" value="&lt;div style=&quot;font-size: 17px&quot;&gt;&lt;font style=&quot;font-size: 17px&quot;&gt;function(module,exports,require){&lt;/font&gt;&lt;/div&gt;&lt;div style=&quot;font-size: 17px&quot;&gt;&lt;font style=&quot;font-size: 17px&quot;&gt;&amp;nbsp; &amp;nbsp; &lt;font color=&quot;#000000&quot; style=&quot;font-size: 17px&quot;&gt;const b = require(&#39;b&#39;)&lt;/font&gt;&lt;/font&gt;&lt;/div&gt;&lt;font color=&quot;#000000&quot; style=&quot;font-size: 17px&quot;&gt;&amp;nbsp; &amp;nbsp; const c = require(&#39;c&#39;)&lt;/font&gt;&lt;div style=&quot;font-size: 17px&quot;&gt;&lt;font style=&quot;font-size: 17px&quot;&gt;}&lt;/font&gt;&lt;/div&gt;" style="text;html=1;strokeColor=none;fillColor=none;align=left;verticalAlign=middle;whiteSpace=wrap;rounded=0;fontFamily=Comic Sans MS;fontSize=16;fontColor=#FF308A;spacingTop=5;" vertex="1" parent="1">
          <mxGeometry x="360" y="-58.75" width="290" height="83.75" as="geometry" />
        </mxCell>
        <mxCell id="rtNJkIgBVZsDBMfdx_lD-42" value="" style="rounded=0;whiteSpace=wrap;html=1;verticalAlign=middle;fillColor=#dae8fc;strokeColor=#6c8ebf;" vertex="1" parent="1">
          <mxGeometry x="350" y="57.5" width="290" height="90" as="geometry" />
        </mxCell>
        <mxCell id="rtNJkIgBVZsDBMfdx_lD-43" value="&lt;div style=&quot;font-size: 17px&quot;&gt;&lt;font style=&quot;font-size: 17px&quot;&gt;function(module,exports,require){&lt;/font&gt;&lt;/div&gt;&lt;div style=&quot;font-size: 17px&quot;&gt;&lt;font style=&quot;font-size: 17px&quot;&gt;&amp;nbsp; &amp;nbsp; &lt;font color=&quot;#000000&quot;&gt;module.exports = &#39;it is b&#39;&lt;/font&gt;&lt;/font&gt;&lt;/div&gt;&lt;div style=&quot;font-size: 17px&quot;&gt;&lt;font style=&quot;font-size: 17px&quot;&gt;}&lt;/font&gt;&lt;/div&gt;" style="text;html=1;strokeColor=none;fillColor=none;align=left;verticalAlign=middle;whiteSpace=wrap;rounded=0;fontFamily=Comic Sans MS;fontSize=16;fontColor=#FF308A;spacingTop=5;" vertex="1" parent="1">
          <mxGeometry x="360" y="66.25" width="290" height="71.25" as="geometry" />
        </mxCell>
        <mxCell id="rtNJkIgBVZsDBMfdx_lD-44" value="" style="rounded=0;whiteSpace=wrap;html=1;verticalAlign=middle;fillColor=#dae8fc;strokeColor=#6c8ebf;" vertex="1" parent="1">
          <mxGeometry x="350" y="170" width="290" height="90" as="geometry" />
        </mxCell>
        <mxCell id="rtNJkIgBVZsDBMfdx_lD-45" value="&lt;div style=&quot;font-size: 17px&quot;&gt;&lt;font style=&quot;font-size: 17px&quot;&gt;function(module,exports,require){&lt;/font&gt;&lt;/div&gt;&lt;div style=&quot;font-size: 17px&quot;&gt;&lt;font style=&quot;font-size: 17px&quot;&gt;&amp;nbsp; &amp;nbsp; &lt;font color=&quot;#000000&quot;&gt;module.exports = &#39;it is c&#39;&lt;/font&gt;&lt;/font&gt;&lt;/div&gt;&lt;div style=&quot;font-size: 17px&quot;&gt;&lt;font style=&quot;font-size: 17px&quot;&gt;}&lt;/font&gt;&lt;/div&gt;" style="text;html=1;strokeColor=none;fillColor=none;align=left;verticalAlign=middle;whiteSpace=wrap;rounded=0;fontFamily=Comic Sans MS;fontSize=16;fontColor=#FF308A;spacingTop=5;" vertex="1" parent="1">
          <mxGeometry x="360" y="178.75" width="290" height="71.25" as="geometry" />
        </mxCell>
        <mxCell id="rtNJkIgBVZsDBMfdx_lD-46" value="" style="shape=image;verticalLabelPosition=bottom;labelBackgroundColor=#ffffff;verticalAlign=top;aspect=fixed;imageAspect=0;image=data:image/png,iVBORw0KGgoAAAANSUhEUgAAACgAAAAvCAYAAACR+4jVAAABbUlEQVRYCe2Y2w2DMAxFuxBzMAd7MAdzMAd7MAfV+bBkIWzIi6RVkKykeZ7cGFv0czT+fBrnOzpg6g39voL7vh/LsiTZuq7RQroKTtN0DMOQxeZ5joI0AVEuF5ysEwNpAnItsnDOMhTydUAOGwJZBTAEshrgU8iqgE8gqwPeQTYBCOS2bZdxshlAK9tkASQVsoFnjEEpy4oBhsQ0L3UWAxzH8dJ3rhqrAHJlQKIkppXA8aXdg2MNPU8fLosPar/C1+RhU93n1TugqNMVjPEfUY+yKQV5e89vZzOAOkBryGYANQh1uWYdLnS79FulniduRhkdB7WC+tNUL84YC+jcnh0Q/wPMesgiZwjvd3ZANrMgAdd+6YFJXxFAgeQq2QAL8TuBoywGqDdJqXfAFPX+84pDw8TrCpb4d8s7hBVTzUxCAI4NGR7IVZ/OSufA7wIymJNJfAM4t1kf7AJ6CygDa5UdMFX5rmBXMFWB1Plf2z91+slYg50AAAAASUVORK5CYII=;" vertex="1" parent="1">
          <mxGeometry x="311.70000000000005" y="-31.25" width="38.3" height="45" as="geometry" />
        </mxCell>
        <mxCell id="rtNJkIgBVZsDBMfdx_lD-47" value="" style="shape=image;verticalLabelPosition=bottom;labelBackgroundColor=#ffffff;verticalAlign=top;aspect=fixed;imageAspect=0;image=data:image/png,iVBORw0KGgoAAAANSUhEUgAAACgAAAAvCAYAAACR+4jVAAABbUlEQVRYCe2Y2w2DMAxFuxBzMAd7MAdzMAd7MAfV+bBkIWzIi6RVkKykeZ7cGFv0czT+fBrnOzpg6g39voL7vh/LsiTZuq7RQroKTtN0DMOQxeZ5joI0AVEuF5ysEwNpAnItsnDOMhTydUAOGwJZBTAEshrgU8iqgE8gqwPeQTYBCOS2bZdxshlAK9tkASQVsoFnjEEpy4oBhsQ0L3UWAxzH8dJ3rhqrAHJlQKIkppXA8aXdg2MNPU8fLosPar/C1+RhU93n1TugqNMVjPEfUY+yKQV5e89vZzOAOkBryGYANQh1uWYdLnS79FulniduRhkdB7WC+tNUL84YC+jcnh0Q/wPMesgiZwjvd3ZANrMgAdd+6YFJXxFAgeQq2QAL8TuBoywGqDdJqXfAFPX+84pDw8TrCpb4d8s7hBVTzUxCAI4NGR7IVZ/OSufA7wIymJNJfAM4t1kf7AJ6CygDa5UdMFX5rmBXMFWB1Plf2z91+slYg50AAAAASUVORK5CYII=;" vertex="1" parent="1">
          <mxGeometry x="311.70000000000005" y="80" width="38.3" height="45" as="geometry" />
        </mxCell>
        <mxCell id="rtNJkIgBVZsDBMfdx_lD-48" value="" style="shape=image;verticalLabelPosition=bottom;labelBackgroundColor=#ffffff;verticalAlign=top;aspect=fixed;imageAspect=0;image=data:image/png,iVBORw0KGgoAAAANSUhEUgAAACgAAAAvCAYAAACR+4jVAAABbUlEQVRYCe2Y2w2DMAxFuxBzMAd7MAdzMAd7MAfV+bBkIWzIi6RVkKykeZ7cGFv0czT+fBrnOzpg6g39voL7vh/LsiTZuq7RQroKTtN0DMOQxeZ5joI0AVEuF5ysEwNpAnItsnDOMhTydUAOGwJZBTAEshrgU8iqgE8gqwPeQTYBCOS2bZdxshlAK9tkASQVsoFnjEEpy4oBhsQ0L3UWAxzH8dJ3rhqrAHJlQKIkppXA8aXdg2MNPU8fLosPar/C1+RhU93n1TugqNMVjPEfUY+yKQV5e89vZzOAOkBryGYANQh1uWYdLnS79FulniduRhkdB7WC+tNUL84YC+jcnh0Q/wPMesgiZwjvd3ZANrMgAdd+6YFJXxFAgeQq2QAL8TuBoywGqDdJqXfAFPX+84pDw8TrCpb4d8s7hBVTzUxCAI4NGR7IVZ/OSufA7wIymJNJfAM4t1kf7AJ6CygDa5UdMFX5rmBXMFWB1Plf2z91+slYg50AAAAASUVORK5CYII=;" vertex="1" parent="1">
          <mxGeometry x="311.70000000000005" y="190" width="38.3" height="45" as="geometry" />
        </mxCell>
        <mxCell id="rtNJkIgBVZsDBMfdx_lD-49" value="" style="rounded=0;whiteSpace=wrap;html=1;fontFamily=Comic Sans MS;fontSize=15;dashed=1;perimeterSpacing=0;fillColor=none;strokeColor=#EA6B66;strokeWidth=2;" vertex="1" parent="1">
          <mxGeometry x="-81" y="138.75" width="170" height="25" as="geometry" />
        </mxCell>
        <mxCell id="rtNJkIgBVZsDBMfdx_lD-50" value="" style="endArrow=classic;html=1;fontFamily=Comic Sans MS;fontSize=15;fontColor=#FF308A;strokeColor=#EA6B66;" edge="1" parent="1">
          <mxGeometry width="50" height="50" relative="1" as="geometry">
            <mxPoint x="8.38000000000011" y="150" as="sourcePoint" />
            <mxPoint x="8.38000000000011" y="190" as="targetPoint" />
          </mxGeometry>
        </mxCell>
        <mxCell id="rtNJkIgBVZsDBMfdx_lD-51" value="" style="rounded=0;whiteSpace=wrap;html=1;verticalAlign=middle;fillColor=#dae8fc;strokeColor=#6c8ebf;" vertex="1" parent="1">
          <mxGeometry x="990" y="-67.5" width="290" height="102.5" as="geometry" />
        </mxCell>
        <mxCell id="rtNJkIgBVZsDBMfdx_lD-52" value="&lt;div style=&quot;font-size: 17px&quot;&gt;&lt;font style=&quot;font-size: 17px&quot;&gt;function(module,exports,require){&lt;/font&gt;&lt;/div&gt;&lt;div style=&quot;font-size: 17px&quot;&gt;&lt;font style=&quot;font-size: 17px&quot;&gt;&amp;nbsp; &amp;nbsp; &lt;font color=&quot;#000000&quot; style=&quot;font-size: 17px&quot;&gt;const b = require(&#39;b&#39;)&lt;/font&gt;&lt;/font&gt;&lt;/div&gt;&lt;font color=&quot;#000000&quot; style=&quot;font-size: 17px&quot;&gt;&amp;nbsp; &amp;nbsp; const c = require(&#39;c&#39;)&lt;/font&gt;&lt;div style=&quot;font-size: 17px&quot;&gt;&lt;font style=&quot;font-size: 17px&quot;&gt;}&lt;/font&gt;&lt;/div&gt;" style="text;html=1;strokeColor=none;fillColor=none;align=left;verticalAlign=middle;whiteSpace=wrap;rounded=0;fontFamily=Comic Sans MS;fontSize=16;fontColor=#FF308A;spacingTop=5;" vertex="1" parent="1">
          <mxGeometry x="1000" y="-58.75" width="290" height="83.75" as="geometry" />
        </mxCell>
        <mxCell id="rtNJkIgBVZsDBMfdx_lD-53" value="" style="rounded=0;whiteSpace=wrap;html=1;verticalAlign=middle;fillColor=#dae8fc;strokeColor=#6c8ebf;" vertex="1" parent="1">
          <mxGeometry x="990" y="57.5" width="290" height="90" as="geometry" />
        </mxCell>
        <mxCell id="rtNJkIgBVZsDBMfdx_lD-54" value="&lt;div style=&quot;font-size: 17px&quot;&gt;&lt;font style=&quot;font-size: 17px&quot;&gt;function(module,exports,require){&lt;/font&gt;&lt;/div&gt;&lt;div style=&quot;font-size: 17px&quot;&gt;&lt;font style=&quot;font-size: 17px&quot;&gt;&amp;nbsp; &amp;nbsp; &lt;font color=&quot;#000000&quot;&gt;module.exports = &#39;it is b&#39;&lt;/font&gt;&lt;/font&gt;&lt;/div&gt;&lt;div style=&quot;font-size: 17px&quot;&gt;&lt;font style=&quot;font-size: 17px&quot;&gt;}&lt;/font&gt;&lt;/div&gt;" style="text;html=1;strokeColor=none;fillColor=none;align=left;verticalAlign=middle;whiteSpace=wrap;rounded=0;fontFamily=Comic Sans MS;fontSize=16;fontColor=#FF308A;spacingTop=5;" vertex="1" parent="1">
          <mxGeometry x="1000" y="66.25" width="290" height="71.25" as="geometry" />
        </mxCell>
        <mxCell id="rtNJkIgBVZsDBMfdx_lD-55" value="" style="rounded=0;whiteSpace=wrap;html=1;verticalAlign=middle;fillColor=#dae8fc;strokeColor=#6c8ebf;" vertex="1" parent="1">
          <mxGeometry x="990" y="170" width="290" height="90" as="geometry" />
        </mxCell>
        <mxCell id="rtNJkIgBVZsDBMfdx_lD-56" value="&lt;div style=&quot;font-size: 17px&quot;&gt;&lt;font style=&quot;font-size: 17px&quot;&gt;function(module,exports,require){&lt;/font&gt;&lt;/div&gt;&lt;div style=&quot;font-size: 17px&quot;&gt;&lt;font style=&quot;font-size: 17px&quot;&gt;&amp;nbsp; &amp;nbsp; &lt;font color=&quot;#000000&quot;&gt;module.exports = &#39;it is c&#39;&lt;/font&gt;&lt;/font&gt;&lt;/div&gt;&lt;div style=&quot;font-size: 17px&quot;&gt;&lt;font style=&quot;font-size: 17px&quot;&gt;}&lt;/font&gt;&lt;/div&gt;" style="text;html=1;strokeColor=none;fillColor=none;align=left;verticalAlign=middle;whiteSpace=wrap;rounded=0;fontFamily=Comic Sans MS;fontSize=16;fontColor=#FF308A;spacingTop=5;" vertex="1" parent="1">
          <mxGeometry x="1000" y="178.75" width="290" height="71.25" as="geometry" />
        </mxCell>
        <mxCell id="rtNJkIgBVZsDBMfdx_lD-57" value="" style="shape=image;verticalLabelPosition=bottom;labelBackgroundColor=#ffffff;verticalAlign=top;aspect=fixed;imageAspect=0;image=data:image/png,iVBORw0KGgoAAAANSUhEUgAAACIAAAAlCAYAAAAnQjt6AAABbElEQVRYCe2WMaqEMBRFZ0M2DhZj4xZsXISOpYygrRa6GrEXptbC0hW4AZuxy3ADGT5J/OZLPjiQBw9JyLue3MSYCzlJXE7CQQwIvxLGke92ZJ5nMgzDnxN1qrG7R5qmIZZlHc6u65RYfgWZpom4rnsYAhNAPXT2YhPkJ8TtdiOYWd/3yonxqGMwe8skBVmWhQRB8HFC1V5+1qhjywo96G6FAILBnud9BGzbJo7jHE7UMxjoboUAEsfxp5AJ6HwmSSJlEUDCMKQg2GQ6g2166MtCACmKgoL4vi8bf7gPenC2LEuphgHhbflOR9Z1JWmakvv9vpl5nvOTpW2te6RtW6VP+/l8CjBaQV6vF3k8HiSKos3MskyAQIdWEOkbFDsNCG+UccQ4wjvAt793j1RVRU/P6/VKDyHMREeym1pd17xZtC389MZxVDrGj97aoC8LAQSDMBjkuMToSuhtQeCdUhAZ8X/3GRDe4dM48gZRKh+p0KmACAAAAABJRU5ErkJggg==;" vertex="1" parent="1">
          <mxGeometry x="930" y="-250" width="45.95" height="50" as="geometry" />
        </mxCell>
        <mxCell id="rtNJkIgBVZsDBMfdx_lD-58" value="Key" style="text;html=1;strokeColor=none;fillColor=none;align=center;verticalAlign=middle;whiteSpace=wrap;rounded=0;dashed=1;fontFamily=Comic Sans MS;fontSize=20;fontColor=#000000;" vertex="1" parent="1">
          <mxGeometry x="870" y="-120" width="40" height="20" as="geometry" />
        </mxCell>
        <mxCell id="rtNJkIgBVZsDBMfdx_lD-59" value="value" style="text;html=1;strokeColor=none;fillColor=none;align=center;verticalAlign=middle;whiteSpace=wrap;rounded=0;dashed=1;fontFamily=Comic Sans MS;fontSize=20;fontColor=#000000;" vertex="1" parent="1">
          <mxGeometry x="1100" y="-120" width="40" height="20" as="geometry" />
        </mxCell>
        <mxCell id="rtNJkIgBVZsDBMfdx_lD-60" value="./a.js" style="text;html=1;strokeColor=none;fillColor=none;align=center;verticalAlign=middle;whiteSpace=wrap;rounded=0;dashed=1;fontFamily=Comic Sans MS;fontSize=19;fontColor=#000000;" vertex="1" parent="1">
          <mxGeometry x="870" y="-27.5" width="40" height="20" as="geometry" />
        </mxCell>
        <mxCell id="rtNJkIgBVZsDBMfdx_lD-61" value="./b.js" style="text;html=1;strokeColor=none;fillColor=none;align=center;verticalAlign=middle;whiteSpace=wrap;rounded=0;dashed=1;fontFamily=Comic Sans MS;fontSize=19;fontColor=#000000;" vertex="1" parent="1">
          <mxGeometry x="870" y="86.25" width="40" height="20" as="geometry" />
        </mxCell>
        <mxCell id="rtNJkIgBVZsDBMfdx_lD-62" value="./c.js" style="text;html=1;strokeColor=none;fillColor=none;align=center;verticalAlign=middle;whiteSpace=wrap;rounded=0;dashed=1;fontFamily=Comic Sans MS;fontSize=19;fontColor=#000000;" vertex="1" parent="1">
          <mxGeometry x="870" y="207.5" width="40" height="20" as="geometry" />
        </mxCell>
        <mxCell id="rtNJkIgBVZsDBMfdx_lD-63" value="{&lt;br&gt;&amp;nbsp; &amp;nbsp; key1: value1,&lt;br&gt;&amp;nbsp; &amp;nbsp; key2: value2,&lt;br&gt;&amp;nbsp; &amp;nbsp; key3: value3&lt;br&gt;}" style="text;html=1;strokeColor=none;fillColor=none;align=left;verticalAlign=middle;whiteSpace=wrap;rounded=0;dashed=1;fontFamily=Comic Sans MS;fontSize=20;fontColor=#000000;" vertex="1" parent="1">
          <mxGeometry x="1030" y="-290" width="310" height="130" as="geometry" />
        </mxCell>
        <mxCell id="rtNJkIgBVZsDBMfdx_lD-64" value="" style="endArrow=none;dashed=1;html=1;strokeColor=#EA6B66;fontFamily=Comic Sans MS;fontSize=19;fontColor=#000000;strokeWidth=3;" edge="1" parent="1">
          <mxGeometry width="50" height="50" relative="1" as="geometry">
            <mxPoint x="830" y="-150" as="sourcePoint" />
            <mxPoint x="1280" y="-150" as="targetPoint" />
          </mxGeometry>
        </mxCell>
        <mxCell id="rtNJkIgBVZsDBMfdx_lD-65" value="" style="shape=image;verticalLabelPosition=bottom;labelBackgroundColor=#ffffff;verticalAlign=top;aspect=fixed;imageAspect=0;image=data:image/png,iVBORw0KGgoAAAANSUhEUgAAACQAAAAiCAYAAAA3WXuFAAACJklEQVRYCe2U7W3CQBAF0xB1UAd9UAd1UAd9UIejiTTR03oPH4YfKMpK1pn9nHt35mv5MPv6MJ7lH2jrRP6WQufzeTmdTr8Pv1+13Qpdr9flcDisntvt9hLTFND9fl8ASEsglBGu5gH4DOQmEM0cdrlcfpgATAh+m5PHZs7xeFyszU117w+BEiYH+u6aQPgA4G4Z1zcDNQRKGAbw5ACHeBxAVQhy8FnLan6nDr5pIBrZnJ0C0Bl+4sJU0N1ADLOxanQAI5/AqVrer1HdUCELsqG+2RUoNvPMhjaBbNjtzuMBmriqJHB+aekfva+AaMp/CY/NgKrD8n9IaC5t/ZKoM07M3tNACWEjfGlcTGOseazdl5Rx6/B1tlKoK65fRkLbtCqhn7VuwE1kju9DoKqKBawC1V26mT219h8CKW13BP4dENNSoQr0FoUE6uTN4UCpjDX1iGucvArtxlYKMcwvQSVoUIdkTBBWatMSHgh7Z06+r4AyWJtljHfiDEEBAPldjbjANdb9fghEAUdCw7wvXaORz3qgZ+whUO5utmEdmvcHFbdsCMRZKzVNOQ5WdkzjeqccRJ73i1zyVIl+ozrrh0A0FoiGuVP9+BxAfipqTsK8BARxquSACsZAzDgrvg5OeNXo1qFCJicUQ7CqRqppDnke3YwyztsEEgCwtARN1bo8gGdtCqhrhvx5TL5XoK72kW83kMeGOvk8o0YHthuoa/YO38cBfQP4bUfKE8FEdQAAAABJRU5ErkJggg==;" vertex="1" parent="1">
          <mxGeometry x="500" y="-618" width="36" height="34" as="geometry" />
        </mxCell>
        <mxCell id="rtNJkIgBVZsDBMfdx_lD-66" value="&lt;div style=&quot;font-size: 17px&quot;&gt;(&lt;font color=&quot;#000000&quot;&gt;function(&lt;/font&gt;&lt;font color=&quot;#ffffff&quot;&gt;module&lt;/font&gt;&lt;font color=&quot;#000000&quot;&gt;,&amp;nbsp; &lt;/font&gt;&lt;font color=&quot;#ffffff&quot;&gt;module.exports&lt;/font&gt;&lt;font color=&quot;#000000&quot;&gt;, &lt;/font&gt;&lt;font color=&quot;#ffffff&quot;&gt;_require&lt;/font&gt;&lt;font color=&quot;#000000&quot;&gt;){&lt;/font&gt;&lt;/div&gt;&lt;div style=&quot;font-size: 17px&quot;&gt;&lt;font color=&quot;#000000&quot;&gt;&amp;nbsp; &amp;nbsp;&amp;nbsp;const b = require(&#39;b&#39;)&lt;/font&gt;&lt;/div&gt;&lt;font color=&quot;#000000&quot; style=&quot;font-size: 17px&quot;&gt;&amp;nbsp; &amp;nbsp; const c = require(&#39;c&#39;)&lt;/font&gt;&lt;div style=&quot;font-size: 17px&quot;&gt;&lt;span&gt;&lt;font color=&quot;#000000&quot;&gt;}&lt;/font&gt;&lt;/span&gt;)(mo)&lt;/div&gt;" style="text;html=1;strokeColor=none;fillColor=none;align=left;verticalAlign=middle;whiteSpace=wrap;rounded=0;fontFamily=Comic Sans MS;fontSize=16;fontColor=#FF308A;spacingTop=5;" vertex="1" parent="1">
          <mxGeometry x="936.6800000000002" y="-886.75" width="430" height="95" as="geometry" />
        </mxCell>
        <mxCell id="rtNJkIgBVZsDBMfdx_lD-67" value="&lt;div style=&quot;font-size: 17px&quot;&gt;const module = {&lt;/div&gt;&lt;div style=&quot;font-size: 17px&quot;&gt;&amp;nbsp; &amp;nbsp; exports: {}&lt;/div&gt;&lt;div style=&quot;font-size: 17px&quot;&gt;}&lt;/div&gt;&lt;div style=&quot;font-size: 17px&quot;&gt;&lt;br&gt;&lt;/div&gt;&lt;div style=&quot;font-size: 17px&quot;&gt;const _require = function() {}&lt;/div&gt;" style="text;html=1;strokeColor=none;fillColor=none;align=left;verticalAlign=middle;whiteSpace=wrap;rounded=0;fontFamily=Comic Sans MS;fontSize=16;fontColor=#FF308A;spacingTop=5;" vertex="1" parent="1">
          <mxGeometry x="1006.6800000000002" y="-1109.25" width="290" height="83.75" as="geometry" />
        </mxCell>
        <mxCell id="rtNJkIgBVZsDBMfdx_lD-68" value="" style="endArrow=classic;html=1;fontFamily=Comic Sans MS;fontSize=15;fontColor=#FF308A;" edge="1" parent="1">
          <mxGeometry width="50" height="50" relative="1" as="geometry">
            <mxPoint x="1086.6800000000003" y="-994.56" as="sourcePoint" />
            <mxPoint x="1086.6800000000003" y="-939.25" as="targetPoint" />
          </mxGeometry>
        </mxCell>
        <mxCell id="rtNJkIgBVZsDBMfdx_lD-69" value="&lt;div style=&quot;font-size: 19px&quot;&gt;&lt;font style=&quot;font-size: 19px&quot;&gt;const _require = function(key) {&lt;/font&gt;&lt;/div&gt;&lt;div style=&quot;font-size: 19px&quot;&gt;&lt;span&gt;&lt;font style=&quot;font-size: 19px&quot;&gt;&amp;nbsp; &amp;nbsp;&amp;nbsp;&lt;/font&gt;&lt;/span&gt;&lt;/div&gt;&lt;div style=&quot;font-size: 19px&quot;&gt;&lt;span&gt;&lt;font style=&quot;font-size: 19px&quot;&gt;&amp;nbsp; &amp;nbsp; &amp;nbsp; &amp;nbsp; value&lt;/font&gt;&lt;/span&gt;&lt;/div&gt;&lt;div style=&quot;font-size: 19px&quot;&gt;&lt;span&gt;&lt;font style=&quot;font-size: 19px&quot;&gt;&lt;br&gt;&lt;/font&gt;&lt;/span&gt;&lt;/div&gt;&lt;div style=&quot;font-size: 19px&quot;&gt;&lt;span&gt;&lt;font style=&quot;font-size: 19px&quot;&gt;&lt;br&gt;&lt;/font&gt;&lt;/span&gt;&lt;/div&gt;&lt;div style=&quot;font-size: 19px&quot;&gt;&lt;span&gt;&lt;font style=&quot;font-size: 19px&quot;&gt;&lt;br&gt;&lt;/font&gt;&lt;/span&gt;&lt;/div&gt;&lt;div style=&quot;font-size: 19px&quot;&gt;&lt;span&gt;&lt;font style=&quot;font-size: 19px&quot;&gt;&lt;br&gt;&lt;/font&gt;&lt;/span&gt;&lt;/div&gt;&lt;div style=&quot;font-size: 19px&quot;&gt;&lt;span&gt;&lt;font style=&quot;font-size: 19px&quot;&gt;&lt;br&gt;&lt;/font&gt;&lt;/span&gt;&lt;/div&gt;&lt;div style=&quot;font-size: 19px&quot;&gt;&lt;span&gt;&lt;font style=&quot;font-size: 19px&quot;&gt;&lt;br&gt;&lt;/font&gt;&lt;/span&gt;&lt;/div&gt;&lt;div style=&quot;font-size: 19px&quot;&gt;&lt;span&gt;&lt;font style=&quot;font-size: 19px&quot;&gt;&lt;br&gt;&lt;/font&gt;&lt;/span&gt;&lt;/div&gt;&lt;div style=&quot;font-size: 19px&quot;&gt;&lt;span&gt;&lt;font style=&quot;font-size: 19px&quot;&gt;&lt;br&gt;&lt;/font&gt;&lt;/span&gt;&lt;/div&gt;&lt;div style=&quot;font-size: 19px&quot;&gt;&lt;span&gt;&lt;font style=&quot;font-size: 19px&quot;&gt;&amp;nbsp; &amp;nbsp; &amp;nbsp; &amp;nbsp; return module.exports&lt;/font&gt;&lt;/span&gt;&lt;/div&gt;&lt;div style=&quot;font-size: 19px&quot;&gt;&lt;span&gt;&lt;font style=&quot;font-size: 19px&quot;&gt;&lt;br&gt;&lt;/font&gt;&lt;/span&gt;&lt;/div&gt;&lt;div style=&quot;font-size: 19px&quot;&gt;&lt;font style=&quot;font-size: 19px&quot;&gt;}&lt;/font&gt;&lt;br&gt;&lt;/div&gt;" style="text;html=1;strokeColor=none;fillColor=none;align=left;verticalAlign=middle;whiteSpace=wrap;rounded=0;fontFamily=Comic Sans MS;fontSize=16;fontColor=#FF308A;spacingTop=5;" vertex="1" parent="1">
          <mxGeometry x="1654" y="-770" width="286" height="340" as="geometry" />
        </mxCell>
        <mxCell id="rtNJkIgBVZsDBMfdx_lD-70" value="" style="endArrow=classic;html=1;fontFamily=Comic Sans MS;fontSize=15;fontColor=#FF308A;" edge="1" parent="1">
          <mxGeometry width="50" height="50" relative="1" as="geometry">
            <mxPoint x="1086.6800000000003" y="-759.25" as="sourcePoint" />
            <mxPoint x="1086.6800000000003" y="-703.9400000000005" as="targetPoint" />
          </mxGeometry>
        </mxCell>
        <mxCell id="rtNJkIgBVZsDBMfdx_lD-71" value="&lt;div style=&quot;font-size: 17px&quot;&gt;return module.exports&lt;/div&gt;" style="text;html=1;strokeColor=none;fillColor=none;align=left;verticalAlign=middle;whiteSpace=wrap;rounded=0;fontFamily=Comic Sans MS;fontSize=16;fontColor=#FF308A;spacingTop=5;" vertex="1" parent="1">
          <mxGeometry x="990" y="-730" width="430" height="95" as="geometry" />
        </mxCell>
        <mxCell id="rtNJkIgBVZsDBMfdx_lD-72" value="" style="shape=image;verticalLabelPosition=bottom;labelBackgroundColor=#ffffff;verticalAlign=top;aspect=fixed;imageAspect=0;image=data:image/png,iVBORw0KGgoAAAANSUhEUgAAACoAAAAlCAYAAAA0lXuOAAABRUlEQVRYCe2WgQmDQAxFu5BzOId7OIdzOId7OIfllX44Al60JoL0AuFKr9w9f35iX9tD4vUQzq2BRleqKdoUrSkwTdPWdV01+77f+F1WuB6d57kKWD4AsMuypLC6oMMwfEBZUWwvgQSadV3XcNjDoOM4Vi8HTuoCSyWOZvXg72YYKOedsYkeSlXwLBMKCuyRxish9dmrWDgosNjgaAIILD1QixTQ2oV2r4FKEcxPd18d8umKar7iryuw6aA0i4b8Fdh0UCxgYZmjZ+MWUKDKucmlZ+MW0PJNhA1+iXRQul5vFQvJHs3G9zatPdJB1fUWElVLpfUwWq090kFpJKuOSq89/GuTvTLSQcvLrnz+X1A8SamjU1633rVVcv89lXNSDZGx7vldwC4o5pePMgCZGojhhQvqHXDXfgONVrop2hSNViD6vDes4dg30AbfQwAAAABJRU5ErkJggg==;" vertex="1" parent="1">
          <mxGeometry x="1313.3300000000002" y="-1164" width="53.35" height="47" as="geometry" />
        </mxCell>
        <mxCell id="rtNJkIgBVZsDBMfdx_lD-73" value="" style="shape=image;verticalLabelPosition=bottom;labelBackgroundColor=#ffffff;verticalAlign=top;aspect=fixed;imageAspect=0;image=data:image/png,iVBORw0KGgoAAAANSUhEUgAAACIAAAAlCAYAAAAnQjt6AAABbElEQVRYCe2WMaqEMBRFZ0M2DhZj4xZsXISOpYygrRa6GrEXptbC0hW4AZuxy3ADGT5J/OZLPjiQBw9JyLue3MSYCzlJXE7CQQwIvxLGke92ZJ5nMgzDnxN1qrG7R5qmIZZlHc6u65RYfgWZpom4rnsYAhNAPXT2YhPkJ8TtdiOYWd/3yonxqGMwe8skBVmWhQRB8HFC1V5+1qhjywo96G6FAILBnud9BGzbJo7jHE7UMxjoboUAEsfxp5AJ6HwmSSJlEUDCMKQg2GQ6g2166MtCACmKgoL4vi8bf7gPenC2LEuphgHhbflOR9Z1JWmakvv9vpl5nvOTpW2te6RtW6VP+/l8CjBaQV6vF3k8HiSKos3MskyAQIdWEOkbFDsNCG+UccQ4wjvAt793j1RVRU/P6/VKDyHMREeym1pd17xZtC389MZxVDrGj97aoC8LAQSDMBjkuMToSuhtQeCdUhAZ8X/3GRDe4dM48gZRKh+p0KmACAAAAABJRU5ErkJggg==;" vertex="1" parent="1">
          <mxGeometry x="2120" y="-544" width="45.95" height="50" as="geometry" />
        </mxCell>
        <mxCell id="rtNJkIgBVZsDBMfdx_lD-74" value="" style="endArrow=classic;html=1;fontFamily=Comic Sans MS;fontSize=15;fontColor=#FF308A;" edge="1" parent="1">
          <mxGeometry width="50" height="50" relative="1" as="geometry">
            <mxPoint x="2120" y="-560" as="sourcePoint" />
            <mxPoint x="2000" y="-620" as="targetPoint" />
          </mxGeometry>
        </mxCell>
        <mxCell id="rtNJkIgBVZsDBMfdx_lD-75" value="&lt;span style=&quot;color: rgb(255 , 48 , 138) ; text-align: left ; background-color: rgb(248 , 249 , 250)&quot;&gt;value&lt;/span&gt;" style="edgeLabel;html=1;align=center;verticalAlign=middle;resizable=0;points=[];fontSize=19;fontFamily=Comic Sans MS;fontColor=#000000;" vertex="1" connectable="0" parent="rtNJkIgBVZsDBMfdx_lD-74">
          <mxGeometry x="0.0529" relative="1" as="geometry">
            <mxPoint as="offset" />
          </mxGeometry>
        </mxCell>
        <mxCell id="rtNJkIgBVZsDBMfdx_lD-76" value="" style="endArrow=classic;html=1;strokeColor=#000000;strokeWidth=1;fontFamily=Comic Sans MS;fontSize=19;fontColor=#000000;" edge="1" parent="1">
          <mxGeometry width="50" height="50" relative="1" as="geometry">
            <mxPoint x="2010" y="-680" as="sourcePoint" />
            <mxPoint x="2150" y="-610" as="targetPoint" />
          </mxGeometry>
        </mxCell>
        <mxCell id="rtNJkIgBVZsDBMfdx_lD-77" value="key" style="edgeLabel;html=1;align=center;verticalAlign=middle;resizable=0;points=[];fontSize=19;fontFamily=Comic Sans MS;fontColor=#000000;" vertex="1" connectable="0" parent="rtNJkIgBVZsDBMfdx_lD-76">
          <mxGeometry x="-0.2698" y="-3" relative="1" as="geometry">
            <mxPoint y="1" as="offset" />
          </mxGeometry>
        </mxCell>
        <mxCell id="rtNJkIgBVZsDBMfdx_lD-78" value="{&lt;br&gt;&amp;nbsp; &amp;nbsp; key1: value1,&lt;br&gt;&amp;nbsp; &amp;nbsp; key2: value2,&lt;br&gt;&amp;nbsp; &amp;nbsp; key3: value3&lt;br&gt;}" style="text;html=1;strokeColor=none;fillColor=none;align=left;verticalAlign=middle;whiteSpace=wrap;rounded=0;dashed=1;fontFamily=Comic Sans MS;fontSize=20;fontColor=#000000;" vertex="1" parent="1">
          <mxGeometry x="2180" y="-584" width="310" height="130" as="geometry" />
        </mxCell>
        <mxCell id="rtNJkIgBVZsDBMfdx_lD-79" value="Load" style="text;html=1;strokeColor=none;fillColor=none;align=center;verticalAlign=middle;whiteSpace=wrap;rounded=0;dashed=1;fontFamily=Comic Sans MS;fontSize=20;fontColor=#000000;" vertex="1" parent="1">
          <mxGeometry x="1373.35" y="-1150.5" width="40" height="20" as="geometry" />
        </mxCell>
        <mxCell id="rtNJkIgBVZsDBMfdx_lD-80" value="" style="curved=1;endArrow=classic;html=1;strokeColor=#000000;strokeWidth=1;fontFamily=Comic Sans MS;fontSize=19;fontColor=#000000;" edge="1" parent="1" source="rtNJkIgBVZsDBMfdx_lD-81">
          <mxGeometry width="50" height="50" relative="1" as="geometry">
            <mxPoint x="860" y="-230" as="sourcePoint" />
            <mxPoint x="850" y="-1010" as="targetPoint" />
            <Array as="points">
              <mxPoint x="600" y="-800" />
            </Array>
          </mxGeometry>
        </mxCell>
        <mxCell id="rtNJkIgBVZsDBMfdx_lD-81" value="&lt;font face=&quot;comic sans ms&quot; style=&quot;font-size: 17px;&quot;&gt;&lt;span style=&quot;font-size: 17px;&quot;&gt;&amp;nbsp; module.exports = {&lt;br style=&quot;font-size: 17px;&quot;&gt;&amp;nbsp; &amp;nbsp; &amp;nbsp; entry: &#39;&lt;font color=&quot;#ff308a&quot; style=&quot;font-size: 17px;&quot;&gt;./a.js&lt;/font&gt;&#39;&lt;br style=&quot;font-size: 17px;&quot;&gt;&amp;nbsp; }&lt;/span&gt;&lt;/font&gt;" style="rounded=0;whiteSpace=wrap;html=1;verticalAlign=middle;fillColor=#dae8fc;strokeColor=#6c8ebf;align=left;fontSize=17;" vertex="1" parent="1">
          <mxGeometry x="530" y="-590" width="220" height="80.62" as="geometry" />
        </mxCell>
        <mxCell id="rtNJkIgBVZsDBMfdx_lD-82" value="" style="curved=1;endArrow=classic;html=1;strokeColor=#000000;strokeWidth=1;fontFamily=Comic Sans MS;fontSize=19;fontColor=#000000;" edge="1" parent="1" target="rtNJkIgBVZsDBMfdx_lD-81">
          <mxGeometry width="50" height="50" relative="1" as="geometry">
            <mxPoint x="870" y="-240" as="sourcePoint" />
            <mxPoint x="840" y="-820" as="targetPoint" />
            <Array as="points">
              <mxPoint x="700" y="-370" />
            </Array>
          </mxGeometry>
        </mxCell>
        <mxCell id="rtNJkIgBVZsDBMfdx_lD-83" value="" style="endArrow=classic;html=1;fontFamily=Comic Sans MS;fontSize=15;fontColor=#FF308A;" edge="1" parent="1">
          <mxGeometry width="50" height="50" relative="1" as="geometry">
            <mxPoint x="1590" y="-630" as="sourcePoint" />
            <mxPoint x="1400" y="-809.3800000000001" as="targetPoint" />
          </mxGeometry>
        </mxCell>
        <mxCell id="rtNJkIgBVZsDBMfdx_lD-84" value="&lt;span style=&quot;color: rgb(255 , 48 , 138) ; text-align: left ; background-color: rgb(248 , 249 , 250)&quot;&gt;value&lt;/span&gt;" style="edgeLabel;html=1;align=center;verticalAlign=middle;resizable=0;points=[];fontSize=19;fontFamily=Comic Sans MS;fontColor=#000000;" vertex="1" connectable="0" parent="rtNJkIgBVZsDBMfdx_lD-83">
          <mxGeometry x="0.0529" relative="1" as="geometry">
            <mxPoint as="offset" />
          </mxGeometry>
        </mxCell>
        <mxCell id="rtNJkIgBVZsDBMfdx_lD-85" value="" style="endArrow=classic;html=1;strokeColor=#000000;strokeWidth=1;fontFamily=Comic Sans MS;fontSize=19;fontColor=#000000;" edge="1" parent="1">
          <mxGeometry width="50" height="50" relative="1" as="geometry">
            <mxPoint x="1380" y="-750" as="sourcePoint" />
            <mxPoint x="1580" y="-580" as="targetPoint" />
          </mxGeometry>
        </mxCell>
        <mxCell id="rtNJkIgBVZsDBMfdx_lD-86" value="Load(value)" style="edgeLabel;html=1;align=center;verticalAlign=middle;resizable=0;points=[];fontSize=19;fontFamily=Comic Sans MS;fontColor=#000000;" vertex="1" connectable="0" parent="rtNJkIgBVZsDBMfdx_lD-85">
          <mxGeometry x="-0.2698" y="-3" relative="1" as="geometry">
            <mxPoint y="1" as="offset" />
          </mxGeometry>
        </mxCell>
        <mxCell id="rtNJkIgBVZsDBMfdx_lD-87" value="&lt;div style=&quot;font-size: 17px&quot;&gt;&lt;font style=&quot;font-size: 17px&quot;&gt;function(module,exports,require){&lt;/font&gt;&lt;/div&gt;&lt;div style=&quot;font-size: 17px&quot;&gt;&lt;font style=&quot;font-size: 17px&quot;&gt;&amp;nbsp; &amp;nbsp; &lt;font color=&quot;#000000&quot; style=&quot;font-size: 17px&quot;&gt;const b = require(&#39;b&#39;)&lt;/font&gt;&lt;/font&gt;&lt;/div&gt;&lt;font color=&quot;#000000&quot; style=&quot;font-size: 17px&quot;&gt;&amp;nbsp; &amp;nbsp; const c = require(&#39;c&#39;)&lt;/font&gt;&lt;div style=&quot;font-size: 17px&quot;&gt;&lt;font style=&quot;font-size: 17px&quot;&gt;}&lt;/font&gt;&lt;/div&gt;" style="text;html=1;strokeColor=none;fillColor=none;align=left;verticalAlign=middle;whiteSpace=wrap;rounded=0;fontFamily=Comic Sans MS;fontSize=16;fontColor=#FF308A;spacingTop=5;" vertex="1" parent="1">
          <mxGeometry x="300" y="-1117" width="290" height="83.75" as="geometry" />
        </mxCell>
        <mxCell id="rtNJkIgBVZsDBMfdx_lD-88" value="" style="shape=image;verticalLabelPosition=bottom;labelBackgroundColor=#ffffff;verticalAlign=top;aspect=fixed;imageAspect=0;image=data:image/png,iVBORw0KGgoAAAANSUhEUgAAACgAAAAvCAYAAACR+4jVAAABbUlEQVRYCe2Y2w2DMAxFuxBzMAd7MAdzMAd7MAfV+bBkIWzIi6RVkKykeZ7cGFv0czT+fBrnOzpg6g39voL7vh/LsiTZuq7RQroKTtN0DMOQxeZ5joI0AVEuF5ysEwNpAnItsnDOMhTydUAOGwJZBTAEshrgU8iqgE8gqwPeQTYBCOS2bZdxshlAK9tkASQVsoFnjEEpy4oBhsQ0L3UWAxzH8dJ3rhqrAHJlQKIkppXA8aXdg2MNPU8fLosPar/C1+RhU93n1TugqNMVjPEfUY+yKQV5e89vZzOAOkBryGYANQh1uWYdLnS79FulniduRhkdB7WC+tNUL84YC+jcnh0Q/wPMesgiZwjvd3ZANrMgAdd+6YFJXxFAgeQq2QAL8TuBoywGqDdJqXfAFPX+84pDw8TrCpb4d8s7hBVTzUxCAI4NGR7IVZ/OSufA7wIymJNJfAM4t1kf7AJ6CygDa5UdMFX5rmBXMFWB1Plf2z91+slYg50AAAAASUVORK5CYII=;" vertex="1" parent="1">
          <mxGeometry x="250.00000000000003" y="-1097.63" width="38.3" height="45" as="geometry" />
        </mxCell>
        <mxCell id="rtNJkIgBVZsDBMfdx_lD-89" value="" style="endArrow=classic;html=1;fontFamily=Comic Sans MS;fontSize=15;fontColor=#FF308A;" edge="1" parent="1">
          <mxGeometry width="50" height="50" relative="1" as="geometry">
            <mxPoint x="820" y="-1070" as="sourcePoint" />
            <mxPoint x="620" y="-1097.63" as="targetPoint" />
          </mxGeometry>
        </mxCell>
        <mxCell id="rtNJkIgBVZsDBMfdx_lD-90" value="key" style="edgeLabel;html=1;align=center;verticalAlign=middle;resizable=0;points=[];fontSize=19;fontFamily=Comic Sans MS;fontColor=#000000;" vertex="1" connectable="0" parent="rtNJkIgBVZsDBMfdx_lD-89">
          <mxGeometry x="-0.272" y="3" relative="1" as="geometry">
            <mxPoint x="-27.33" y="-12.99" as="offset" />
          </mxGeometry>
        </mxCell>
        <mxCell id="rtNJkIgBVZsDBMfdx_lD-91" value="" style="endArrow=classic;html=1;strokeColor=#000000;strokeWidth=1;fontFamily=Comic Sans MS;fontSize=19;fontColor=#000000;" edge="1" parent="1">
          <mxGeometry width="50" height="50" relative="1" as="geometry">
            <mxPoint x="600" y="-1052.63" as="sourcePoint" />
            <mxPoint x="820" y="-1022.6300000000001" as="targetPoint" />
          </mxGeometry>
        </mxCell>
        <mxCell id="rtNJkIgBVZsDBMfdx_lD-92" value="&amp;nbsp;function() {&amp;nbsp;&lt;br&gt;&amp;nbsp; &amp;nbsp;//...&lt;br&gt;&amp;nbsp;}" style="edgeLabel;html=1;align=left;verticalAlign=middle;resizable=0;points=[];fontSize=19;fontFamily=Comic Sans MS;fontColor=#000000;labelBorderColor=#FF308A;" vertex="1" connectable="0" parent="rtNJkIgBVZsDBMfdx_lD-91">
          <mxGeometry x="-0.2698" y="-3" relative="1" as="geometry">
            <mxPoint x="-50.03" y="36.06" as="offset" />
          </mxGeometry>
        </mxCell>
      </root>
    </mxGraphModel>
  </diagram>
</mxfile>
